<svg height="512pt" viewBox="-1 0 512 512" width="512pt" xmlns="http://www.w3.org/2000/svg"><path d="m455 301h-65v-32.507812c34.191406-6.96875 60-37.273438 60-73.492188v-120c0-8.285156-6.714844-15-15-15h-45v-30h45c8.285156 0 15-6.714844 15-15s-6.714844-15-15-15h-120c-8.285156 0-15 6.714844-15 15s6.714844 15 15 15h45v30h-45c-8.285156 0-15 6.714844-15 15v120c0 36.21875 25.808594 66.523438 60 73.492188v32.507812h-97.945312c11.867187-46.988281 15.335937-106.664062-25.089844-133.972656-21.351563-14.421875-49.675782-16.273438-71.964844-16.273438s-50.613281 1.851563-71.964844 16.273438c-40.417968 27.300781-36.960937 86.964844-25.089844 133.972656h-12.945312c-30.328125 0-55 24.671875-55 55v141c0 8.285156 6.714844 15 15 15h480c8.285156 0 15-6.714844 15-15v-141c0-30.328125-24.671875-55-55-55zm-35-211v30h-90v-30zm-90 105v-45h90v45c0 24.8125-20.1875 45-45 45s-45-20.1875-45-45zm-165-14.246094c48.578125 0 74.902344 9.890625 74.902344 62.058594 0 63.738281-38.847656 147.679688-74.902344 147.679688-36.0625 0-74.902344-83.953126-74.902344-147.679688 0-52.167969 26.324219-62.058594 74.902344-62.058594zm315 301.246094h-450v-126c0-13.785156 11.214844-25 25-25h22.296875c44.429687 118.820312 130.652344 119.6875 175.40625 0h107.296875v44c0 8.285156 6.714844 15 15 15s15-6.714844 15-15v-44h65c13.785156 0 25 11.214844 25 25zm0 0" stroke="white" stroke-width="12"/></svg>