<svg height="496pt" viewBox="0 0 496 496" width="496pt" xmlns="http://www.w3.org/2000/svg"><path d="m496 134.113281v-12.671875c0-49.3125-40.128906-89.441406-89.441406-89.441406-16.207032 0-32.117188 4.40625-46.015625 12.742188l-6.941407 4.167968c-11.273437 6.761719-25.097656 8.722656-37.859374 5.496094-6.535157-13.214844-20.03125-22.40625-35.742188-22.40625h-41.472656c.898437-2.511719 1.472656-5.183594 1.472656-8 0-13.230469-10.769531-24-24-24h-136c-30.878906 0-56 25.121094-56 56v62.542969l-3.167969 8.457031c-13.824219 36.855469-20.832031 75.503906-20.832031 114.871094 0 20.496094 1.945312 41.089844 5.777344 61.21875l27.597656 144.910156h14.625v6.320312c0 22.984376 18.695312 41.679688 41.679688 41.679688 16.175781 0 31-9.433594 37.753906-24.03125 18.796875-40.65625 39.421875-63.96875 56.566406-63.96875 13.902344 0 24.015625 16.097656 35.734375 34.734375 15.707031 24.96875 33.496094 53.265625 68.265625 53.265625 30.335938 0 46.175781-21.953125 61.496094-43.175781 16.632812-23.054688 32.335937-44.824219 66.503906-44.824219v-16c-42.351562 0-62.078125 27.335938-79.480469 51.457031-14.152343 19.605469-26.367187 36.542969-48.519531 36.542969-25.929688 0-40.558594-23.273438-54.710938-45.785156-13.058593-20.75-26.546874-42.214844-49.289062-42.214844-30.753906 0-55.632812 39.832031-71.097656 73.246094-4.140625 8.960937-13.253906 14.753906-23.222656 14.753906-14.160157 0-25.679688-11.519531-25.679688-25.679688v-6.320312h14.625l27.597656-144.902344c3.832032-20.136718 5.777344-40.730468 5.777344-61.226562 0-39.367188-7.007812-78.015625-20.832031-114.871094l-3.167969-8.449219v-62.550781c0-4.40625 3.59375-8 8-8h102.480469c-23.761719 16.527344-38.480469 43.863281-38.480469 73.441406v12.671875c0 13.03125 2.769531 25.640625 8.230469 37.480469 10.050781 21.765625 19 44.765625 26.808593 68.40625h-9.285156l-20 80h324.492188l-20-80h-9.285156c7.808593-23.640625 16.757812-46.640625 26.808593-68.40625 5.460938-11.839844 8.230469-24.449219 8.230469-37.480469zm-192-62.113281v96c0 4.40625-3.59375 8-8 8s-8-3.59375-8-8v-48c0-13.230469-10.769531-24-24-24s-24 10.769531-24 24v16c0 4.40625-3.59375 8-8 8s-8-3.59375-8-8v-88h56c13.230469 0 24 10.769531 24 24zm-229.542969 56 1.726563 4.617188c5.328125 14.199218 9.527344 28.6875 12.71875 43.382812h-65.804688c3.183594-14.6875 7.390625-29.183594 12.71875-43.382812l1.726563-4.617188zm-58.457031 113.871094c0-16.800782 1.414062-33.445313 4.078125-49.871094h71.832031c2.664063 16.433594 4.082032 33.078125 4.082032 49.871094 0 10.039062-.511719 20.105468-1.488282 30.128906h-77.015625c-.976562-10.015625-1.488281-20.078125-1.488281-30.128906zm30.625 190.128906-6.097656-32h30.953125l-6.097657 32zm27.894531-48h-37.039062l-15.984375-83.902344c-.769532-4.019531-1.398438-8.050781-2.007813-12.097656h73.023438c-.609375 4.046875-1.246094 8.078125-2.007813 12.097656zm-2.519531-328v56h-32v-56c0-22.054688 17.945312-40 40-40h136c4.40625 0 8 3.59375 8 8s-3.59375 8-8 8h-120c-13.230469 0-24 10.769531-24 24zm114.246094 248 12-48h259.507812l12 48zm293.753906-169.886719c0 10.695313-2.273438 21.054688-6.761719 30.773438-11.015625 23.855469-20.757812 49.121093-29.125 75.113281h-232.226562c-8.367188-25.992188-18.109375-51.257812-29.125-75.113281-4.488281-9.71875-6.761719-20.070313-6.761719-30.773438v-12.671875c0-24.433594 12.28125-46.9375 32-60.480468v75.039062c0 13.230469 10.769531 24 24 24s24-10.769531 24-24v-16c0-4.40625 3.59375-8 8-8s8 3.59375 8 8v48c0 13.230469 10.769531 24 24 24s24-10.769531 24-24v-96c0-.207031-.054688-.398438-.0625-.601562 14.445312 1.746093 29.367188-1.246094 41.894531-8.765626l6.9375-4.167968c11.414063-6.847656 24.476563-10.464844 37.789063-10.464844 40.496094 0 73.441406 32.945312 73.441406 73.441406zm0 0"/><path d="m56 208c-13.230469 0-24 10.769531-24 24s10.769531 24 24 24 24-10.769531 24-24-10.769531-24-24-24zm0 32c-4.40625 0-8-3.59375-8-8s3.59375-8 8-8 8 3.59375 8 8-3.59375 8-8 8zm0 0"/></svg>