<svg height="511pt" viewBox="0 1 511 511.99926" width="511pt" xmlns="http://www.w3.org/2000/svg"><path d="m274.964844 300.609375 9.410156-57.535156c1.949219-11.90625-6.085938-23.214844-17.789062-24.886719-11.300782-1.617188-21.988282 6.230469-23.828126 17.484375l-9.6875 59.246094c-3.726562 22.769531-31.089843 31.644531-47.269531 16.023437-33.660156-32.5-47.582031-83.019531-36.335937-131.847656 4.980468-21.601562 4.722656-45.058594-.742188-67.839844-19.4375-80.851562 70.808594-144.351562 132.988282-92.40625 9.886718 8.253906 23.492187 10.472656 35.5 5.792969 75.863281-29.609375 141.28125 60.265625 96.132812 130.714844-12.296875 19.179687-20.09375 41.46875-22.542969 64.46875-5.210937 48.425781-33.285156 91.292969-73.269531 111.886719-21.230469 10.933593-46.496094-7.066407-42.566406-31.101563zm-4.136719-112.113281c28.980469 4.136718 47.699219 31.628906 43.15625 59.417968l-9.265625 56.644532c30.636719-16.21875 52.152344-49.804688 56.253906-87.929688 2.9375-27.589844 12.316406-54.382812 27.113282-77.457031 29.449218-45.957031-11.125-105.65625-59.972657-86.585937-22.203125 8.652343-47.351562 4.542968-65.636719-10.71875-40.015624-33.4375-97.273437 9.609374-84.585937 62.382812 6.546875 27.273438 6.824219 55.480469.808594 81.578125-8.59375 37.308594 1.101562 75.589844 25.3125 100.894531l9.140625-55.890625c4.496094-27.492187 30.140625-46.265625 57.675781-42.335937zm0 0" stroke="white" stroke-width="12"/><path d="m495.671875 512h-480.171875c-8.285156 0-15-6.714844-15-14.996094 0-67.28125 6.257812-187.886718 26.417969-252.699218 8.148437-26.183594 22.296875-56.515626 49.605469-56.515626 83.917968 0-.480469 235.226563 108.039062 235.226563 7.515625 0 13.351562-1.769531 19.980469-24.65625 15.839843-54.679687 90.132812-53.371094 104.472656-.28125 3.089844 11.367187 8.898437 24.933594 19.019531 24.933594 111.824219 0 48.429688-205.226563 126.625-205.226563 51.210938 0 55.660156 113.527344 57.257813 165.550782 1.816406 59.160156-1.238281 113.96875-1.269531 114.515624-.449219 7.941407-7.019532 14.148438-14.976563 14.148438zm-465.007813-29.996094h450.675782c1.617187-41.421875 5.089844-202.003906-23.378906-232.128906-12.214844-12.921875-19.078126 40.398438-21.636719 57.929688-8.097657 55.488281-19.625 145.203124-108.289063 145.203124-26.390625 0-41.191406-21.980468-48.117187-47.617187-6.132813-22.574219-39.015625-24.726563-46.558594 1.3125-4.015625 13.855469-13.414063 46.304687-48.796875 46.304687-87.832031 0-91.378906-97.910156-94.371094-162.960937-1.242187-27.027344-3.320312-72.261719-13.667968-72.261719-3.4375 0-12.238282 7.402344-20.957032 35.429688-18.464844 59.351562-23.859375 166.773437-24.902344 228.789062zm0 0" stroke="white" stroke-width="12"/></svg>