<svg height="496pt" viewBox="0 0 496 496" width="496pt" xmlns="http://www.w3.org/2000/svg"><path d="m190.753906 101.894531 6.964844 4.175781c12.875 7.730469 27.371094 12.152344 42.28125 13.378907v96.550781h16v-96.542969c14.921875-1.234375 29.425781-5.65625 42.304688-13.402343l6.617187-3.957032c4.054687-2.417968 7.988281-4.082031 11.695313-4.9375 3.710937-.855468 7.445312-1.289062 11.152343-1.136718l.46875-16c-5.046875-.128907-10.175781.375-15.230469 1.542968-5.328124 1.234375-10.808593 3.511719-16.289062 6.800782l-6.628906 3.96875c-25.410156 15.265624-58.753906 15.257812-84.128906.023437l-6.96875-4.175781c-9.441407-5.65625-20.199219-8.441406-31.214844-8.160156l.46875 16c7.921875-.246094 15.707031 1.800781 22.507812 5.871093zm0 0"/><path d="m364.121094 315.984375c10.070312-44.160156 24.632812-87.175781 43.65625-128.382813 5.453125-11.839843 8.222656-24.449218 8.222656-37.488281v-12.664062c0-49.320313-40.128906-89.449219-89.449219-89.449219-16.214843 0-32.125 4.40625-46.007812 12.753906l-6.941407 4.148438c-15.457031 9.28125-35.746093 9.28125-51.210937 0l-6.925781-4.160156c-13.898438-8.335938-29.800782-12.742188-46.015625-12.742188-49.320313 0-89.449219 40.128906-89.449219 89.449219v12.664062c0 13.039063 2.769531 25.648438 8.222656 37.496094 3.640625 7.863281 7.089844 15.941406 10.425782 24.007813-6.878907 12.101562-19.753907 20.382812-34.648438 20.382812v16c22.054688 0 40 17.945312 40 40h16c0-3.792969.703125-7.398438 1.695312-10.878906 3.769532 12.839844 7.234376 25.78125 10.207032 38.847656-59.046875 30.101562-103.4375 80.832031-125.277344 143.640625l-6.625 19.039063v17.351562h496v-17.351562l-6.625-19.039063c-21.839844-62.792969-66.214844-113.53125-125.253906-143.625zm-268.121094-178.535156c0-40.503907 32.945312-73.449219 73.449219-73.449219 13.3125 0 26.375 3.617188 37.789062 10.472656l6.929688 4.160156c20.425781 12.261719 47.257812 12.261719 67.664062 0l6.945313-4.160156c11.398437-6.855468 24.460937-10.472656 37.773437-10.472656 40.503907 0 73.449219 32.945312 73.449219 73.449219v12.664062c0 10.703125-2.273438 21.0625-6.761719 30.78125-27.191406 58.90625-45.636719 121.371094-54.832031 185.65625l-8.015625 56.113281c-.757813 5.320313-5.390625 9.335938-10.765625 9.335938-5.21875 0-9.714844-3.71875-10.6875-8.847656l-24.585938-129.074219c-3.328124-17.429687-18.609374-30.078125-36.351562-30.078125s-33.023438 12.648438-36.351562 30.078125l-24.585938 129.082031c-.972656 5.121094-5.46875 8.839844-10.6875 8.839844-5.375 0-10.007812-4.015625-10.765625-9.34375l-8.015625-56.113281c-5.210938-36.453125-13.578125-72.65625-24.722656-107.757813 7.144531-6.632812 16.632812-10.785156 27.128906-10.785156v-16c-22.054688 0-40-17.945312-40-40h-12.414062c-1.632813-3.703125-3.144532-7.464844-4.824219-11.113281-4.488281-9.71875-6.761719-20.070313-6.761719-30.773438zm-3.304688 102.550781c7.921876-4.753906 14.550782-11.390625 19.304688-19.304688 4.753906 7.921876 11.390625 14.550782 19.304688 19.304688-7.921876 4.753906-14.550782 11.390625-19.304688 19.304688-4.753906-7.914063-11.390625-14.550782-19.304688-19.304688zm-76.222656 240 5.261719-15.144531c20-57.503907 60.144531-104.238281 113.578125-132.671875 2.457031 12.167968 4.6875 24.367187 6.441406 36.625l8.015625 56.113281c1.878907 13.15625 13.320313 23.078125 26.605469 23.078125 12.890625 0 23.992188-9.191406 26.410156-21.847656l24.582032-129.074219c1.878906-9.902344 10.5625-17.078125 20.632812-17.078125s18.753906 7.175781 20.632812 17.078125l24.582032 129.066406c2.417968 12.664063 13.519531 21.855469 26.410156 21.855469 13.285156 0 24.726562-9.921875 26.605469-23.078125l8.015625-56.113281c1.761718-12.296875 3.960937-24.496094 6.410156-36.640625 53.449219 28.425781 93.601562 75.175781 113.609375 132.6875l5.261719 15.144531zm0 0"/><path d="m56 0h16v16h-16zm0 0"/><path d="m56 32h16v16h-16zm0 0"/><path d="m72 16h16v16h-16zm0 0"/><path d="m40 16h16v16h-16zm0 0"/><path d="m16 104h16v16h-16zm0 0"/><path d="m16 136h16v16h-16zm0 0"/><path d="m32 120h16v16h-16zm0 0"/><path d="m0 120h16v16h-16zm0 0"/><path d="m16 280h16v16h-16zm0 0"/><path d="m16 312h16v16h-16zm0 0"/><path d="m32 296h16v16h-16zm0 0"/><path d="m0 296h16v16h-16zm0 0"/><path d="m432 264h16v16h-16zm0 0"/><path d="m432 296h16v16h-16zm0 0"/><path d="m448 280h16v16h-16zm0 0"/><path d="m416 280h16v16h-16zm0 0"/><path d="m464 176h16v16h-16zm0 0"/><path d="m464 208h16v16h-16zm0 0"/><path d="m480 192h16v16h-16zm0 0"/><path d="m448 192h16v16h-16zm0 0"/><path d="m456 0h-16c0 22.054688-17.945312 40-40 40v16c22.054688 0 40 17.945312 40 40h16c0-22.054688 17.945312-40 40-40v-16c-22.054688 0-40-17.945312-40-40zm-8 67.304688c-4.753906-7.914063-11.390625-14.550782-19.304688-19.304688 7.921876-4.753906 14.550782-11.390625 19.304688-19.304688 4.753906 7.921876 11.390625 14.550782 19.304688 19.304688-7.914063 4.753906-14.550782 11.390625-19.304688 19.304688zm0 0"/></svg>