<svg height="512pt" viewBox="-30 0 512 512.001" width="512pt" xmlns="http://www.w3.org/2000/svg"><path d="m436 0h-257.757812c-74.578126 0-140.277344 48.988281-160.960938 120.640625-14.148438 49.023437-15.46875 100.035156-3.917969 151.617187 1.535157 6.851563 7.613281 11.722657 14.636719 11.722657h49.847656c17.398438 47.152343 8.699219 48.703125 11.128906 77.019531h-33.976562c-30.328125 0-55 24.675781-55 55v81c0 8.285156 6.714844 15 15 15h360c8.285156 0 15-6.714844 15-15v-81c0-30.324219-24.671875-55-55-55h-34.511719c.515625-6 .628907-12.058594.289063-18.128906-1.625-28.484375 6.21875-45.042969 11.382812-58.890625h50.398438c7.023437 0 13.105468-4.871094 14.640625-11.722657 13.253906-59.203124 7.675781-113.601562-3.730469-151.257812h62.53125c8.285156 0 15-6.714844 15-15v-91c0-8.285156-6.714844-15-15-15zm-240.703125 121.300781c33.367187 7.136719 57.453125 32.507813 72.1875 63.433594-19.984375-7.179687-40.695313-4.484375-58.296875 5.730469-8.753906 5.074218-19.628906 5.070312-28.375 0-17.714844-10.277344-38.152344-12.707032-57.625-5.960938 14.789062-30.910156 38.863281-56.105468 72.109375-63.203125zm75.527344 223.261719c1.628906 29.132812-10.144531 57.453125-30.457031 74.59375v-42.773438c0-25.25-20.789063-45.992187-46.550782-45.507812-24.648437.484375-44.699218 20.679688-44.699218 45.011719v42.265625c-20.859376-17.273438-32.34375-44.871094-30.40625-74.410156 2.386718-36.304688-9.136719-59.535157-13.796876-73.171876.253907-2.394531-.34375-15.835937 2.699219-35.027343 10.007813-19.765625 34.304688-32.957031 58.144531-19.125 18.035157 10.453125 40.441407 10.453125 58.480469-.003907 24.273438-14.085937 49.339844-.191406 58.945313 20.804688 1.816406 12.074219 2.246094 21.132812 2.382812 31.933594-4.285156 13.503906-16.984375 36.148437-14.742187 75.410156zm64.175781 46.4375c13.785156 0 25 11.214844 25 25v66h-330v-66c0-13.785156 11.214844-25 25-25h40.371094c8.496094 24.292969 24.542968 45.109375 46.34375 58.722656 4.652344 2.90625 7.421875 2.277344 22.398437 2.277344 8.285157 0 15-6.714844 15-15v-61.113281c0-8.113281 6.859375-14.851563 15.292969-15.019531 8.679688-.183594 15.957031 6.859374 15.957031 15.515624v60.53125c0 8.285157 6.71875 15 15 15 17.179688 0 19.765625.640626 24.492188-2.464843 19.824219-13.042969 35.71875-33.476563 44.300781-58.449219zm15.289062-137.019531h-35.191406c-2.984375-48.753907-21.21875-100.242188-57.445312-132.980469h84.230468c10.808594 30.15625 18.117188 79.011719 8.40625 132.980469zm70.710938-162.980469c-237.253906 0-226.503906-.101562-228.394531.242188-71.328125 12.957031-112.46875 86.347656-117.144531 162.738281h-35.207032c-7.773437-42.597657-5.816406-84.597657 5.851563-125.019531 16.820312-58.269532 71.15625-98.960938 132.136719-98.960938h242.757812zm0 0" stroke="white" stroke-width="12"/></svg>