<svg height="512pt" viewBox="-31 0 512 512.00057" width="512pt" xmlns="http://www.w3.org/2000/svg"><path d="m260.351562 17.699219c-21.527343 12.746093-48.269531 12.746093-69.789062.003906-107.398438-63.65625-228.917969 56.039063-179.011719 175.007813 15.65625 37.371093 22.625 77.390624 20.15625 115.742187-5.304687 82.574219 31.8125 159.636719 96.859375 201.121094 4.777344 3.046875 5.78125 2.351562 36.386719 2.351562 8.285156 0 15-6.710937 15-14.992187v-121.226563c0-24.363281 19.773437-44.582031 44.070313-45.074219 25.152343-.507812 45.929687 20.367188 45.929687 46.066407v120.234375c0 8.28125 6.71875 14.992187 15 14.992187 34.546875 0 35.289063.75 40.199219-2.546875 58.863281-39.550781 97.800781-114.570312 93.179687-198.871094-2.234375-39.972656 4.84375-80.238281 20.46875-116.453124 51.378907-119.191407-70.515625-240.324219-178.449219-176.355469zm-85.082031 25.804687c30.957031 18.328125 69.417969 18.328125 100.375-.003906 27.539063-16.320312 57.746094-17.722656 84.679688-4.835938-20.847657 68.988282-89.824219 111.28125-161.746094 97.285157-51.457031-10.015625-92.78125-47.652344-107.953125-97.285157 26.941406-12.867187 57.148438-11.457031 84.644531 4.839844zm235.980469 138.675782c-17.453125 40.457031-25.363281 85.410156-22.871094 129.984374 3.777344 68.910157-25.359375 133.503907-76.277344 169.773438h-12.144531v-105.238281c0-41.460938-33.667969-76.925781-76.535156-76.050781-40.785156.824218-73.464844 34.121093-73.464844 75.054687v106.234375h-8.84375c-53.605469-36.140625-83.972656-101.445312-79.46875-171.5625 2.765625-42.941406-4.988281-87.632812-22.425781-129.253906-21.09375-50.28125-2.605469-98.257813 25.71875-124.800782 24.53125 66.90625 88.289062 112.253907 160.824219 112.253907 70.554687 0 135.457031-44.257813 160.253906-112.21875 28.550781 26.777343 47.03125 75.261719 25.234375 125.824219zm0 0" stroke="white" stroke-width="12"></path></svg>